<?xml version="1.0" encoding="utf-8"?>
<!-- Generator: Adobe Illustrator 25.0.1, SVG Export Plug-In . SVG Version: 6.00 Build 0)  -->
<svg version="1.1" id="Layer_1" xmlns="http://www.w3.org/2000/svg" xmlns:xlink="http://www.w3.org/1999/xlink" x="0px" y="0px"
	 viewBox="0 0 1199 1005.9" style="enable-background:new 0 0 1199 1005.9;" xml:space="preserve">
<style type="text/css">
	.st0{fill:#2F3D6C;}
	.st1{fill:#1D8644;}
	.st2{fill:#0A54A0;}
	.st3{fill:#E31E25;}
	.st4{fill:#F4DA07;}
</style>
<g id="layer101">
</g>
<g id="layer102">
	<path class="st0" d="M1.3,1005.2c-1-0.4-1.3-15.4-1.3-70.4v-69.9h598.5H1197l-0.2,70.3l-0.3,70.2l-597,0.2
		C271.2,1005.7,1.9,1005.5,1.3,1005.2z"/>
</g>
<g id="layer103">
	<path class="st1" d="M1.3,1005.2c-1-0.4-1.3-15.4-1.3-70.4v-69.9h598.5H1197l-0.2,70.3l-0.3,70.2l-168,0.3l-168,0.2l-11-11.2
		c-22.2-22.8-37.8-35.1-65.4-52c-7.6-4.7-32.1-17.2-37.8-19.3c-2.1-0.7-6.3-2.3-9.3-3.5c-7.5-3-12.4-4.6-26.5-8.6
		c-56.4-16.2-122.5-15.1-177.6,3c-48.8,16-89.4,40.9-125.1,76.8l-14.7,14.8l-195.3-0.1C90.4,1005.8,1.9,1005.5,1.3,1005.2z"/>
</g>
<g id="layer104">
	<path class="st2" d="M2.5,1005.3c0.6-0.2,8.2-2,17-3.9c22.8-5.1,70.2-15.8,89-20c17.7-4,23.8-5.4,66-14.9c16-3.6,36.2-8.1,45-10.1
		s27-6.1,40.5-9.1c13.5-3.1,31.3-7.1,39.5-8.9c15.5-3.5,53.3-12,99.5-22.4c27.2-6.1,65.5-14.8,111.5-25.1c41-9.3,64.6-14.6,84-19
		c9.9-2.3,21.4-4.8,25.5-5.6l7.5-1.6L747,894.8c170.2,42.9,318.5,79.8,354,88.1c48.2,11.4,71.7,17,83.5,20l11,2.8l-167.3,0.1
		l-167.3,0.1l-13.8-13.7c-15.7-15.8-18.3-18.2-26.6-24.7c-3.3-2.5-6.7-5.2-7.5-5.9c-2.8-2.4-9-6.7-9.5-6.7c-0.3,0-1.5-0.9-2.7-2
		c-1.2-1.1-2.8-2-3.5-2c-0.7,0-1.3-0.4-1.3-1c0-0.5-0.7-1-1.5-1s-1.5-0.4-1.5-0.8c0-0.5-1.7-1.7-3.7-2.8c-2.1-1-4-2.2-4.3-2.6
		c-1.5-2-43.6-22.3-48.1-23.2c-0.8-0.2-3.1-1-5.1-2c-2.1-0.9-4.5-1.8-5.5-2c-1-0.1-2.6-0.6-3.5-1c-0.9-0.4-2.2-0.8-3-1
		c-0.7-0.1-1.9-0.5-2.6-1c-0.7-0.4-1.6-0.5-1.9-0.2c-0.3,0.3-1.2,0.1-2-0.5c-0.7-0.6-1.3-0.9-1.3-0.6s-2.4-0.3-5.4-1.4
		c-5.8-2-27.3-6.5-35.9-7.5c-31.9-3.6-47.6-3.8-80.2-0.9c-5.4,0.5-23.2,3.5-29.5,5c-1.4,0.3-3.6,0.8-5,1.1
		c-4.5,0.9-21.1,5.5-23.8,6.6c-1.5,0.6-3,1.2-3.4,1.3c-0.5,0.2-0.9,0.3-1,0.5c-0.2,0.1-1.1,0.3-2,0.5c-2.6,0.5-11.1,3.7-12.4,4.7
		c-0.7,0.5-2.1,1.1-3.3,1.3c-1.2,0.2-5.6,2.1-9.9,4.2c-4.2,2-8.3,3.8-9,3.9c-0.8,0.2-2.3,1.1-3.4,2.1c-1.1,1-2.2,1.6-2.5,1.4
		c-0.4-0.3-5.3,2.2-11.3,5.9c-0.8,0.5-4.4,2.6-8,4.6c-3.6,2.1-6.9,4.2-7.5,4.6c-0.5,0.5-3.5,2.5-6.6,4.6c-7,4.6-11.7,8.2-13.7,10.5
		c-0.9,0.9-2.1,1.7-2.5,1.7c-1.8,0-17.3,13.9-30,26.9l-12.8,13.1l-195.7-0.1C89.6,1005.8,2,1005.6,2.5,1005.3z"/>
	<path class="st2" d="M814.5,814.3c-1.6-0.2-8.2-1.1-14.5-1.9c-40.2-5.4-69.4-18-93-40.2c-19.4-18.3-31.4-40.4-37.7-69.8
		c-2.4-10.9-2.6-14-2.7-35c0-20,0.3-24.4,2.2-33.5c3.1-14.3,5.5-21.5,11.7-34.5c16.3-34.6,47.4-58.9,91.1-71.5
		c38.5-11,89-11.9,135.9-2.2l9,1.9v36.9c0,32.2-0.2,36.9-1.5,36.7c-0.8-0.1-4.2-1.1-7.5-2.3c-48.4-16.9-93.4-10.2-113.9,17.1
		c-19.8,26.3-19.6,71,0.4,96.1c9.4,11.9,24.9,21,42,24.8c20.6,4.6,52.5,1.8,74.3-6.6c7.2-2.7,6.7-5.3,6.7,35
		c0,28.1-0.3,36.7-1.2,37.3c-3.3,2.1-24,6.7-42.3,9.4C860.2,814,822.8,815.4,814.5,814.3z"/>
	<path class="st2" d="M0,807.5c0-0.6,14.1-39.6,17.5-48.6c0.8-1.9,7.1-19.2,14-38.5c13.3-36.8,15.8-43.8,18-49.5
		c0.8-1.9,7.7-21,15.5-42.5c7.8-21.4,15-41.2,16-44c1-2.7,6.2-17,11.6-31.7l9.7-26.8h76.2c71.7,0,76.3,0.1,77,1.8
		c0.4,0.9,3.6,9.8,7.2,19.7c7.3,20.4,21.2,58.7,39.8,110c7,19.3,17.3,47.8,23,63.5c15.9,43.9,30.2,83.3,31,85.3
		c0.7,1.6-2.4,1.7-56.7,1.7h-57.5l-4.7-15.2c-2.6-8.4-6.8-22.2-9.4-30.5l-4.7-15.3h-47.6h-47.6l-3,10.8c-1.7,5.9-5.6,19.4-8.7,30
		c-3.1,10.5-5.6,19.4-5.6,19.7c0,0.3-25,0.5-55.5,0.5S0,807.7,0,807.5z M209.5,678.2c-1-2.6-12.5-35.2-21.1-59.8
		c-9-26.1-11.2-31.9-12-32.2c-0.5-0.2-2.6,4.5-4.6,10.4c-2,6-5.2,15.3-7.2,20.8c-11.3,32.5-20.6,60-20.6,61.2
		c0,1.1,6.1,1.3,33.1,1.3C208.2,679.9,210.2,679.8,209.5,678.2z"/>
	<path class="st2" d="M373,666.9V525.7l93.8,0.5c90,0.4,94.2,0.5,107.1,2.5c7.3,1.2,15.8,2.9,19,3.8c28.7,7.9,44.3,23.2,48.6,47.8
		c5.8,33.8-6.9,62-34.5,76c-1.9,1-8,3.3-13.5,5.1c-5.5,1.9-9.8,3.4-9.5,3.5c18.9,3.9,35.5,10.6,45,18.1c5.8,4.6,13,13.9,16,20.7
		c4.5,10.1,6.5,25.3,5,37.3c-3.8,30.9-17,47.1-47,57.7c-8.1,2.8-13.9,4.1-29,6.5c-12.8,1.9-18.3,2.1-107.2,2.4L373,808V666.9z
		 M516.3,750.8c17.4-2.7,23.6-10.1,23.7-27.9c0-10.6-0.9-14.7-4.2-19.7c-5.6-8.3-17.7-11.3-46-11.3H473v30v30h18.1
		C501,751.9,512.4,751.4,516.3,750.8z M523.2,634.1c10.5-4.2,14.3-11.1,14.3-25.7c0-19.4-6.7-26.1-28.3-28.4
		c-5.6-0.6-16.1-1.1-23.2-1.1h-13V608v29.1l22.3-0.4C515.5,636.3,518,636.1,523.2,634.1z"/>
	<path class="st2" d="M932,766v-41.9l55.7-48.9c86.7-76,89.4-78.4,88.8-79.4c-0.4-0.5-27.9-0.9-69.1-0.9H939v-34.5v-34.5h127.5H1194
		v43.4c0,39.9-0.1,43.5-1.7,45.3c-1.6,1.7-6.8,6.3-19.7,17.3c-1.6,1.4-3.9,3.4-5.1,4.5c-1.3,1.1-4.9,4.3-8.1,7
		c-3.2,2.8-7.9,6.8-10.4,9c-2.5,2.2-5.8,5.2-7.5,6.7c-4.7,4.1-44.4,38.5-50.9,44.2c-3.3,2.8-6.9,6-8.2,7.1
		c-1.2,1.1-7.7,6.7-14.3,12.4c-6.7,5.8-12.1,10.8-12.1,11.3c0,0.4,32.1,0.9,71.3,1l71.2,0.3l0.3,36.3l0.2,36.2h-133.5H932V766z"/>
	<path class="st2" d="M614,412.7c-8-2.5-15.9-7.7-20.8-13.5c-3.6-4.3-13.3-20.5-73.9-124.3c-16.3-27.8-31.1-52.4-33.1-54.8
		c-20.3-25.2-53-37-83.2-30.2c-56.3,12.8-83.3,75.5-53.9,125.3c5.5,9.3,19.3,23.1,28.6,28.6c12.9,7.6,23.4,10.8,40.5,12.1
		c8.7,0.6,11.5,1.2,15,3.3c7.2,4.2,10.8,10.8,10.8,19.7c0,14.2-9.8,23.7-24.7,23.9c-6.8,0.1-26.3-2.6-33.3-4.6
		c-57.4-16.6-96-67.3-96-126.3c0-49.8,28.4-95.1,73.5-117.3c21.1-10.4,49.8-15.7,69.9-12.8c4.4,0.6,8.1,0.9,8.4,0.6
		c0.3-0.2-3.4-7.1-8-15.2c-4.7-8.2-9.8-17-11.3-19.8c-1.6-2.7-7.4-12.9-13-22.6c-13.9-23.8-14.9-26.6-14.9-40.4
		c-0.1-10.4,0.1-11.4,3.1-17.5c5.7-11.6,16.6-20.4,30.8-24.6c5.7-1.7,16-1.9,193.9-2.1c207.8-0.4,198.9-0.6,212.5,5.9
		c19.2,9.2,28.7,28.6,23.6,48.3c-2.3,8.7-4.2,12.5-18.3,36.8c-7.1,12.2-14.4,24.9-16.2,28.2s-5.5,9.8-8.2,14.4
		c-2.7,4.6-4.7,8.5-4.5,8.8c0.3,0.2,4,0,8.2-0.6c10.4-1.5,17.9-1.4,30.4,0.4c15.5,2.3,27,5.8,40.6,12.5
		c37.2,18.1,61.9,50.3,71.1,92.5c2.6,12.1,2.4,37.9-0.5,50.5c-3.6,16.1-10.2,32.4-17.2,42.8c-1.6,2.4-2.9,4.5-2.9,4.8
		c0,1.2-11.3,14.4-17.2,20c-12.8,12.4-26.7,21.4-42.3,27.6c-12.7,5-18.4,6.5-31.3,8.2c-20,2.8-26.9,1.8-33.7-4.8
		c-8.8-8.4-9.5-22.7-1.5-32.9c3.8-4.8,9.4-6.9,21-7.8c5.8-0.4,13.9-1.7,18-2.7c32.7-8.6,56.5-35.2,61.7-69.1
		c4.6-29.5-7.9-60-32.2-78.4c-9.1-6.9-18.6-11.6-30.1-14.9c-11.2-3.2-30.5-3.2-41.7,0c-18.1,5.2-32,14.1-43.3,27.7
		c-3.3,4-19.7,31.3-49.4,82.5c-0.8,1.4-2,3.2-2.6,4c-0.6,0.8-2.6,4.2-4.4,7.5c-4.8,8.7-5.9,10.7-7.8,13.7
		c-0.9,1.5-10.2,17.4-20.7,35.3c-10.4,17.9-20.9,34.7-23.2,37.4c-5.5,6.3-13.1,11.2-21.6,13.9C630.3,415.4,622.5,415.4,614,412.7z
		 M657.4,312.2c16.5-28.5,44.9-77.7,63.1-109.3c18.3-31.6,45.9-79.3,61.3-106c15.4-26.7,27.8-48.8,27.5-49.2
		c-0.2-0.5-82.6-0.8-183-0.8c-171.2,0-182.5,0.1-181.9,1.7c0.4,0.9,10.7,19,23,40.2c12.3,21.3,23.4,40.4,24.6,42.6
		c2.2,4,32.5,56.5,99.8,172.8c19,32.8,34.8,59.7,35.1,59.7C627.3,363.9,641,340.6,657.4,312.2z"/>
</g>
<g id="layer105">
	<path class="st3" d="M612,315.2c-19.3-33.4-78.3-135.7-116.1-201.1c-17-29.4-30.9-53.6-30.9-53.8s72.7-0.4,161.5-0.4
		S788,60.2,788,60.5s-1.1,2.5-2.4,4.9c-3,5.3-53.3,92.4-54.6,94.5c-1.7,2.8-9.7,16.5-12.2,21c-1.4,2.5-3.5,6.2-4.7,8.3
		c-3.8,6.8-49.1,85.2-50.1,86.7c-0.8,1.3-10.1,17.5-17.2,30c-12.2,21.3-18.3,31.7-19.3,32.8C626.5,339.8,623.5,335.2,612,315.2z"/>
</g>
<g id="layer106">
	<path class="st4" d="M2.5,1005.3c0.6-0.2,8.2-2,17-3.9c22.8-5.1,70.2-15.8,89-20c17.7-4,23.8-5.4,66-14.9c16-3.6,36.2-8.1,45-10.1
		s27-6.1,40.5-9.1c13.5-3.1,31.3-7.1,39.5-8.9c15.5-3.5,53.3-12,99.5-22.4c27.2-6.1,65.5-14.8,111.5-25.1c41-9.3,64.6-14.6,84-19
		c9.9-2.3,21.4-4.8,25.5-5.6l7.5-1.6L747,894.8c170.2,42.9,318.5,79.8,354,88.1c48.2,11.4,71.7,17,83.5,20l11,2.8l-167.1,0.1
		l-167.2,0.1l-15.3-15.3c-17.6-17.5-29.7-27.4-48.9-40.2c-40.7-27.2-89.1-44.5-139-49.6c-15.1-1.6-47.5-1.6-62,0
		c-45.5,4.9-86,18-124.1,40.2c-24.4,14.2-40.9,27-62.4,48.1l-17,16.8l-195.5-0.1C89.5,1005.8,2,1005.6,2.5,1005.3z"/>
</g>
</svg>
